<svg version="1.2" xmlns="http://www.w3.org/2000/svg" viewBox="0 0 512 580" width="512" height="580">
	<title>c++-svg</title>
	<style>
		.s0 { fill: #000000 } 
	</style>
	<path id="Layer" fill-rule="evenodd" class="s0" d="m511.2 408.1c0 9.5-2 17.8-6 25.1-4.1 7.4-10.3 13.6-18.8 18.5-68 39.2-136.2 78.3-204.2 117.6-18.3 10.6-36.1 10.2-54.3-0.5-27.1-16-162.7-93.7-203.2-117.1-8.4-4.9-14.6-11.1-18.7-18.5-4-7.2-6-15.6-6-25 0-79 0-157.9 0-236.8 0-19.1 8.1-33.9 24.8-43.5 40.4-23.4 176-101.1 203.1-117.1 18.2-10.7 36-11.1 54.3-0.5 68 39.2 136.1 78.4 204.2 117.6 8.2 4.8 14.4 10.8 18.5 18 4.2 7.3 6.2 15.9 6.2 25.5 0.1 79 0.1 236.7 0.1 236.7zm-13.7-128.2h-19.5v-19.5h-19.4v19.5h-19.5v19.4h19.5v19.5h19.4v-19.5h19.5zm-71 0h-19.4v-19.4h-19.5v19.4h-19.4v19.5h19.4v19.4h19.5v-19.4h19.4zm-97.3 51.3c-14.5 25.7-42 43.1-73.6 43.1-31.4 0-58.8-17.2-73.4-42.6q-2.7-4.8-4.8-9.8-2.1-5.1-3.5-10.4-1.4-5.3-2.1-10.8-0.8-5.4-0.7-10.9c0-46.7 37.8-84.6 84.5-84.6 31.2 0 58.4 17 73.1 42.2l73.9-42.6c-29.4-50.7-84.2-84.8-147-84.8-93.8 0-169.8 76-169.8 169.8 0 30.7 8.2 59.6 22.5 84.4 29.3 51 84.3 85.3 147.3 85.3 63.1 0 118.2-34.4 147.4-85.5z"/>
</svg>