<svg xmlns="http://www.w3.org/2000/svg" viewBox="0 0 24 24" id="cmake"><path d="M23.5 24H.5a.498.498 0 0 1-.447-.723l11.5-23c.17-.339.725-.339.895 0l11.5 23a.503.503 0 0 1-.021.486.506.506 0 0 1-.427.237zM1.309 23h21.383L12 1.618 1.309 23z"></path><path d="M13.999 20.5a.499.499 0 0 1-.496-.449l-2-19.5a.5.5 0 0 1 .446-.548.506.506 0 0 1 .548.447l2 19.5a.5.5 0 0 1-.446.548l-.052.002z"></path><path d="M.5 24a.5.5 0 0 1-.336-.87l12.68-11.5a.5.5 0 0 1 .672.74L.836 23.87A.498.498 0 0 1 .5 24z"></path><path d="M23.5 24a.495.495 0 0 1-.168-.029l-16.5-5.896a.5.5 0 1 1 .336-.941l16.5 5.896a.5.5 0 0 1-.168.97z"></path></svg>