<svg version="1.2" xmlns="http://www.w3.org/2000/svg" viewBox="0 0 64 64" width="512" height="512">
	<title>tensorflow-svg</title>
	<style>
		.s0 { fill: #0a0a0a } 
		.s1 { fill: #141414 } 
		.s2 { fill: #1c1c1c } 
	</style>
	<path id="Layer" class="s0" d="m27.7 34.5l8.7-5.1 8.5 5.1-8.5 4.9-8.7-4.8zm-25.9-14.9l34.6-19.6 25.7 14.6-8.6 14.8-17.1-9.8-25.9 14.8z"/>
	<path id="Layer" class="s1" d="m27.7 54.1v-9.8l8.6-4.9 8.6-4.9v9.8l-8.5 4.9v9.8l-8.7 5zm0-19.6l-8.6-4.9-8.6 4.8v-9.8l25.9-14.8v19.7zm25.7-10v-4.9l8.6-5 0.1 9.8-8.6 5z"/>
	<path id="Layer" class="s2" d="m19.1 58.8v-29.3l8.5-4.8 0.1 9.8 8.7 4.8v9.9l-8.7-4.6v19.4zm-13-27l-4.2-2.5v-9.6l8.6 4.9v9.8zm30.3-12.2v-9.8l17.1 9.8 0.1 9.8c0 0-17.2-9.8-17.2-9.8z"/>
</svg>